<svg width="112" height="27" viewBox="0 0 112 27" fill="none" xmlns="http://www.w3.org/2000/svg">
<path d="M7.4295 26.288C6.17083 26.288 5.0615 26.0853 4.1015 25.68C3.16283 25.2747 2.41617 24.72 1.8615 24.016C1.32817 23.2907 1.01883 22.4373 0.9335 21.456H4.3895C4.47483 22.032 4.78417 22.5013 5.3175 22.864C5.85083 23.2053 6.55483 23.376 7.4295 23.376H8.8055C9.85083 23.376 10.6402 23.1627 11.1735 22.736C11.7068 22.3093 11.9735 21.744 11.9735 21.04C11.9735 20.3573 11.7282 19.824 11.2375 19.44C10.7682 19.0347 10.0642 18.768 9.1255 18.64L6.8535 18.288C4.97617 17.9893 3.5895 17.456 2.6935 16.688C1.81883 15.8987 1.3815 14.736 1.3815 13.2C1.3815 11.5787 1.90417 10.3307 2.9495 9.456C4.01617 8.56 5.58417 8.112 7.6535 8.112H8.8695C10.7042 8.112 12.1655 8.53867 13.2535 9.392C14.3628 10.224 14.9922 11.344 15.1415 12.752H11.6855C11.6002 12.24 11.3122 11.824 10.8215 11.504C10.3522 11.184 9.7015 11.024 8.8695 11.024H7.6535C6.65083 11.024 5.91483 11.216 5.4455 11.6C4.9975 11.9627 4.7735 12.5067 4.7735 13.232C4.7735 13.872 4.97617 14.352 5.3815 14.672C5.78683 14.992 6.41617 15.216 7.2695 15.344L9.6055 15.728C11.5895 16.0053 13.0402 16.56 13.9575 17.392C14.8962 18.2027 15.3655 19.3867 15.3655 20.944C15.3655 22.6293 14.8108 23.9413 13.7015 24.88C12.6135 25.8187 10.9815 26.288 8.8055 26.288H7.4295ZM20.409 26V2.64H23.865V15.472H26.969L31.641 8.4H35.545L29.945 16.848L35.641 26H31.673L26.969 18.448H23.865V26H20.409ZM39.4045 26V22.864H45.5805V11.536H40.2045V8.4H48.9405V22.864H54.6045V26H39.4045ZM46.9245 5.36C46.1778 5.36 45.5805 5.168 45.1325 4.784C44.6845 4.37867 44.4605 3.84533 44.4605 3.184C44.4605 2.50133 44.6845 1.968 45.1325 1.584C45.5805 1.17867 46.1778 0.975998 46.9245 0.975998C47.6712 0.975998 48.2685 1.17867 48.7165 1.584C49.1645 1.968 49.3885 2.50133 49.3885 3.184C49.3885 3.84533 49.1645 4.37867 48.7165 4.784C48.2685 5.168 47.6712 5.36 46.9245 5.36ZM68.128 26C67.04 26 66.0907 25.7867 65.28 25.36C64.4693 24.912 63.8293 24.2827 63.36 23.472C62.912 22.6613 62.688 21.7227 62.688 20.656V5.776H56.928V2.64H66.144V20.656C66.144 21.3387 66.336 21.8827 66.72 22.288C67.104 22.672 67.6267 22.864 68.288 22.864H73.728V26H68.128ZM87.3155 26C86.2275 26 85.2782 25.7867 84.4675 25.36C83.6568 24.912 83.0168 24.2827 82.5475 23.472C82.0995 22.6613 81.8755 21.7227 81.8755 20.656V5.776H76.1155V2.64H85.3315V20.656C85.3315 21.3387 85.5235 21.8827 85.9075 22.288C86.2915 22.672 86.8142 22.864 87.4755 22.864H92.9155V26H87.3155ZM103.367 26.288C102.108 26.288 100.999 26.0853 100.039 25.68C99.1003 25.2747 98.3537 24.72 97.799 24.016C97.2657 23.2907 96.9563 22.4373 96.871 21.456H100.327C100.412 22.032 100.722 22.5013 101.255 22.864C101.788 23.2053 102.492 23.376 103.367 23.376H104.743C105.788 23.376 106.578 23.1627 107.111 22.736C107.644 22.3093 107.911 21.744 107.911 21.04C107.911 20.3573 107.666 19.824 107.175 19.44C106.706 19.0347 106.002 18.768 105.063 18.64L102.791 18.288C100.914 17.9893 99.527 17.456 98.631 16.688C97.7563 15.8987 97.319 14.736 97.319 13.2C97.319 11.5787 97.8417 10.3307 98.887 9.456C99.9537 8.56 101.522 8.112 103.591 8.112H104.807C106.642 8.112 108.103 8.53867 109.191 9.392C110.3 10.224 110.93 11.344 111.079 12.752H107.623C107.538 12.24 107.25 11.824 106.759 11.504C106.29 11.184 105.639 11.024 104.807 11.024H103.591C102.588 11.024 101.852 11.216 101.383 11.6C100.935 11.9627 100.711 12.5067 100.711 13.232C100.711 13.872 100.914 14.352 101.319 14.672C101.724 14.992 102.354 15.216 103.207 15.344L105.543 15.728C107.527 16.0053 108.978 16.56 109.895 17.392C110.834 18.2027 111.303 19.3867 111.303 20.944C111.303 22.6293 110.748 23.9413 109.639 24.88C108.551 25.8187 106.919 26.288 104.743 26.288H103.367Z" fill="url(#paint0_linear_101_15)"/>
<defs>
<linearGradient id="paint0_linear_101_15" x1="56.4296" y1="-7" x2="56.4296" y2="35" gradientUnits="userSpaceOnUse">
<stop stop-color="#E8AEA9"/>
<stop offset="0.995" stop-color="#9963B3"/>
</linearGradient>
</defs>
</svg>
