<svg width="150" height="24" viewBox="0 0 150 24" fill="none" xmlns="http://www.w3.org/2000/svg">
<path d="M7.978 23.32C6.52733 23.32 5.24733 23.0533 4.138 22.52C3.05 21.9653 2.20733 21.176 1.61 20.152C1.034 19.1067 0.746 17.8907 0.746 16.504V11.896C0.746 10.488 1.034 9.272 1.61 8.248C2.20733 7.224 3.05 6.44533 4.138 5.912C5.24733 5.35733 6.52733 5.08 7.978 5.08C10.09 5.08 11.786 5.63467 13.066 6.744C14.346 7.85333 15.018 9.368 15.082 11.288H11.626C11.562 10.2853 11.21 9.50667 10.57 8.952C9.93 8.39733 9.066 8.12 7.978 8.12C6.80467 8.12 5.87667 8.45067 5.194 9.112C4.51133 9.752 4.17 10.6693 4.17 11.864V16.504C4.17 17.6987 4.51133 18.6267 5.194 19.288C5.87667 19.9493 6.80467 20.28 7.978 20.28C9.066 20.28 9.93 20.0027 10.57 19.448C11.21 18.8933 11.562 18.1147 11.626 17.112H15.082C15.018 19.032 14.346 20.5467 13.066 21.656C11.786 22.7653 10.09 23.32 7.978 23.32ZM27.0375 23.288C25.5868 23.288 24.3282 23.0107 23.2615 22.456C22.1948 21.9013 21.3735 21.112 20.7975 20.088C20.2215 19.064 19.9335 17.8587 19.9335 16.472V11.928C19.9335 10.52 20.2215 9.31467 20.7975 8.312C21.3735 7.288 22.1948 6.49867 23.2615 5.944C24.3282 5.38933 25.5868 5.112 27.0375 5.112C28.4882 5.112 29.7468 5.38933 30.8135 5.944C31.8802 6.49867 32.7015 7.288 33.2775 8.312C33.8535 9.31467 34.1415 10.52 34.1415 11.928V16.472C34.1415 17.8587 33.8535 19.064 33.2775 20.088C32.7015 21.112 31.8802 21.9013 30.8135 22.456C29.7468 23.0107 28.4882 23.288 27.0375 23.288ZM27.0375 20.248C28.2108 20.248 29.1175 19.928 29.7575 19.288C30.3975 18.6267 30.7175 17.688 30.7175 16.472V11.928C30.7175 10.6907 30.3975 9.752 29.7575 9.112C29.1175 8.472 28.2108 8.152 27.0375 8.152C25.8855 8.152 24.9788 8.472 24.3175 9.112C23.6775 9.752 23.3575 10.6907 23.3575 11.928V16.472C23.3575 17.688 23.6775 18.6267 24.3175 19.288C24.9788 19.928 25.8855 20.248 27.0375 20.248ZM39.313 23V5.4H42.737V8.76H43.569L42.737 9.56C42.737 8.152 43.153 7.05333 43.985 6.264C44.817 5.47467 45.969 5.08 47.441 5.08C49.1903 5.08 50.5877 5.64533 51.633 6.776C52.6783 7.88533 53.201 9.38933 53.201 11.288V23H49.745V11.672C49.745 10.52 49.4357 9.63467 48.817 9.016C48.1983 8.39733 47.3557 8.088 46.289 8.088C45.201 8.088 44.337 8.41867 43.697 9.08C43.0783 9.72 42.769 10.6587 42.769 11.896V23H39.313ZM67.3325 23C65.7325 23 64.4845 22.5627 63.5885 21.688C62.6925 20.8133 62.2445 19.5973 62.2445 18.04V8.536H57.3805V5.4H62.2445V0.439999H65.7005V5.4H72.5805V8.536H65.7005V18.04C65.7005 19.256 66.2872 19.864 67.4605 19.864H72.2605V23H67.3325ZM82.84 23.32C81.0053 23.32 79.5547 22.8507 78.488 21.912C77.4427 20.952 76.92 19.6507 76.92 18.008C76.92 16.344 77.4747 15.0427 78.584 14.104C79.7147 13.144 81.2613 12.664 83.224 12.664H88.12V11.032C88.12 10.072 87.8213 9.32533 87.224 8.792C86.6267 8.25867 85.784 7.992 84.696 7.992C83.736 7.992 82.936 8.20533 82.296 8.632C81.656 9.03733 81.2827 9.58133 81.176 10.264H77.784C77.976 8.68533 78.7013 7.42667 79.96 6.488C81.24 5.54933 82.8507 5.08 84.792 5.08C86.8827 5.08 88.536 5.61333 89.752 6.68C90.968 7.72533 91.576 9.15467 91.576 10.968V23H88.216V19.768H87.64L88.216 19.128C88.216 20.408 87.7253 21.432 86.744 22.2C85.7627 22.9467 84.4613 23.32 82.84 23.32ZM83.864 20.664C85.1013 20.664 86.1147 20.3547 86.904 19.736C87.7147 19.096 88.12 18.2853 88.12 17.304V15H83.288C82.392 15 81.6773 15.2453 81.144 15.736C80.632 16.2267 80.376 16.8987 80.376 17.752C80.376 18.648 80.6853 19.3627 81.304 19.896C81.9227 20.408 82.776 20.664 83.864 20.664ZM103.916 23.32C102.465 23.32 101.185 23.0533 100.076 22.52C98.9875 21.9653 98.1448 21.176 97.5475 20.152C96.9715 19.1067 96.6835 17.8907 96.6835 16.504V11.896C96.6835 10.488 96.9715 9.272 97.5475 8.248C98.1448 7.224 98.9875 6.44533 100.076 5.912C101.185 5.35733 102.465 5.08 103.916 5.08C106.028 5.08 107.724 5.63467 109.004 6.744C110.284 7.85333 110.956 9.368 111.02 11.288H107.564C107.5 10.2853 107.148 9.50667 106.508 8.952C105.868 8.39733 105.004 8.12 103.916 8.12C102.742 8.12 101.814 8.45067 101.132 9.112C100.449 9.752 100.108 10.6693 100.108 11.864V16.504C100.108 17.6987 100.449 18.6267 101.132 19.288C101.814 19.9493 102.742 20.28 103.916 20.28C105.004 20.28 105.868 20.0027 106.508 19.448C107.148 18.8933 107.5 18.1147 107.564 17.112H111.02C110.956 19.032 110.284 20.5467 109.004 21.656C107.724 22.7653 106.028 23.32 103.916 23.32ZM124.895 23C123.295 23 122.047 22.5627 121.151 21.688C120.255 20.8133 119.807 19.5973 119.807 18.04V8.536H114.943V5.4H119.807V0.439999H123.263V5.4H130.143V8.536H123.263V18.04C123.263 19.256 123.85 19.864 125.023 19.864H129.823V23H124.895ZM141.555 23.288C140.296 23.288 139.187 23.0853 138.227 22.68C137.288 22.2747 136.541 21.72 135.987 21.016C135.453 20.2907 135.144 19.4373 135.059 18.456H138.515C138.6 19.032 138.909 19.5013 139.443 19.864C139.976 20.2053 140.68 20.376 141.555 20.376H142.931C143.976 20.376 144.765 20.1627 145.299 19.736C145.832 19.3093 146.099 18.744 146.099 18.04C146.099 17.3573 145.853 16.824 145.363 16.44C144.893 16.0347 144.189 15.768 143.251 15.64L140.979 15.288C139.101 14.9893 137.715 14.456 136.819 13.688C135.944 12.8987 135.507 11.736 135.507 10.2C135.507 8.57867 136.029 7.33067 137.075 6.456C138.141 5.56 139.709 5.112 141.779 5.112H142.995C144.829 5.112 146.291 5.53867 147.379 6.392C148.488 7.224 149.117 8.344 149.267 9.752H145.811C145.725 9.24 145.437 8.824 144.947 8.504C144.477 8.184 143.827 8.024 142.995 8.024H141.779C140.776 8.024 140.04 8.216 139.571 8.6C139.123 8.96267 138.899 9.50667 138.899 10.232C138.899 10.872 139.101 11.352 139.507 11.672C139.912 11.992 140.541 12.216 141.395 12.344L143.731 12.728C145.715 13.0053 147.165 13.56 148.083 14.392C149.021 15.2027 149.491 16.3867 149.491 17.944C149.491 19.6293 148.936 20.9413 147.827 21.88C146.739 22.8187 145.107 23.288 142.931 23.288H141.555Z" fill="url(#paint0_linear_101_15)"/>
<path d="M7.978 23.32C6.52733 23.32 5.24733 23.0533 4.138 22.52C3.05 21.9653 2.20733 21.176 1.61 20.152C1.034 19.1067 0.746 17.8907 0.746 16.504V11.896C0.746 10.488 1.034 9.272 1.61 8.248C2.20733 7.224 3.05 6.44533 4.138 5.912C5.24733 5.35733 6.52733 5.08 7.978 5.08C10.09 5.08 11.786 5.63467 13.066 6.744C14.346 7.85333 15.018 9.368 15.082 11.288H11.626C11.562 10.2853 11.21 9.50667 10.57 8.952C9.93 8.39733 9.066 8.12 7.978 8.12C6.80467 8.12 5.87667 8.45067 5.194 9.112C4.51133 9.752 4.17 10.6693 4.17 11.864V16.504C4.17 17.6987 4.51133 18.6267 5.194 19.288C5.87667 19.9493 6.80467 20.28 7.978 20.28C9.066 20.28 9.93 20.0027 10.57 19.448C11.21 18.8933 11.562 18.1147 11.626 17.112H15.082C15.018 19.032 14.346 20.5467 13.066 21.656C11.786 22.7653 10.09 23.32 7.978 23.32ZM27.0375 23.288C25.5868 23.288 24.3282 23.0107 23.2615 22.456C22.1948 21.9013 21.3735 21.112 20.7975 20.088C20.2215 19.064 19.9335 17.8587 19.9335 16.472V11.928C19.9335 10.52 20.2215 9.31467 20.7975 8.312C21.3735 7.288 22.1948 6.49867 23.2615 5.944C24.3282 5.38933 25.5868 5.112 27.0375 5.112C28.4882 5.112 29.7468 5.38933 30.8135 5.944C31.8802 6.49867 32.7015 7.288 33.2775 8.312C33.8535 9.31467 34.1415 10.52 34.1415 11.928V16.472C34.1415 17.8587 33.8535 19.064 33.2775 20.088C32.7015 21.112 31.8802 21.9013 30.8135 22.456C29.7468 23.0107 28.4882 23.288 27.0375 23.288ZM27.0375 20.248C28.2108 20.248 29.1175 19.928 29.7575 19.288C30.3975 18.6267 30.7175 17.688 30.7175 16.472V11.928C30.7175 10.6907 30.3975 9.752 29.7575 9.112C29.1175 8.472 28.2108 8.152 27.0375 8.152C25.8855 8.152 24.9788 8.472 24.3175 9.112C23.6775 9.752 23.3575 10.6907 23.3575 11.928V16.472C23.3575 17.688 23.6775 18.6267 24.3175 19.288C24.9788 19.928 25.8855 20.248 27.0375 20.248ZM39.313 23V5.4H42.737V8.76H43.569L42.737 9.56C42.737 8.152 43.153 7.05333 43.985 6.264C44.817 5.47467 45.969 5.08 47.441 5.08C49.1903 5.08 50.5877 5.64533 51.633 6.776C52.6783 7.88533 53.201 9.38933 53.201 11.288V23H49.745V11.672C49.745 10.52 49.4357 9.63467 48.817 9.016C48.1983 8.39733 47.3557 8.088 46.289 8.088C45.201 8.088 44.337 8.41867 43.697 9.08C43.0783 9.72 42.769 10.6587 42.769 11.896V23H39.313ZM67.3325 23C65.7325 23 64.4845 22.5627 63.5885 21.688C62.6925 20.8133 62.2445 19.5973 62.2445 18.04V8.536H57.3805V5.4H62.2445V0.439999H65.7005V5.4H72.5805V8.536H65.7005V18.04C65.7005 19.256 66.2872 19.864 67.4605 19.864H72.2605V23H67.3325ZM82.84 23.32C81.0053 23.32 79.5547 22.8507 78.488 21.912C77.4427 20.952 76.92 19.6507 76.92 18.008C76.92 16.344 77.4747 15.0427 78.584 14.104C79.7147 13.144 81.2613 12.664 83.224 12.664H88.12V11.032C88.12 10.072 87.8213 9.32533 87.224 8.792C86.6267 8.25867 85.784 7.992 84.696 7.992C83.736 7.992 82.936 8.20533 82.296 8.632C81.656 9.03733 81.2827 9.58133 81.176 10.264H77.784C77.976 8.68533 78.7013 7.42667 79.96 6.488C81.24 5.54933 82.8507 5.08 84.792 5.08C86.8827 5.08 88.536 5.61333 89.752 6.68C90.968 7.72533 91.576 9.15467 91.576 10.968V23H88.216V19.768H87.64L88.216 19.128C88.216 20.408 87.7253 21.432 86.744 22.2C85.7627 22.9467 84.4613 23.32 82.84 23.32ZM83.864 20.664C85.1013 20.664 86.1147 20.3547 86.904 19.736C87.7147 19.096 88.12 18.2853 88.12 17.304V15H83.288C82.392 15 81.6773 15.2453 81.144 15.736C80.632 16.2267 80.376 16.8987 80.376 17.752C80.376 18.648 80.6853 19.3627 81.304 19.896C81.9227 20.408 82.776 20.664 83.864 20.664ZM103.916 23.32C102.465 23.32 101.185 23.0533 100.076 22.52C98.9875 21.9653 98.1448 21.176 97.5475 20.152C96.9715 19.1067 96.6835 17.8907 96.6835 16.504V11.896C96.6835 10.488 96.9715 9.272 97.5475 8.248C98.1448 7.224 98.9875 6.44533 100.076 5.912C101.185 5.35733 102.465 5.08 103.916 5.08C106.028 5.08 107.724 5.63467 109.004 6.744C110.284 7.85333 110.956 9.368 111.02 11.288H107.564C107.5 10.2853 107.148 9.50667 106.508 8.952C105.868 8.39733 105.004 8.12 103.916 8.12C102.742 8.12 101.814 8.45067 101.132 9.112C100.449 9.752 100.108 10.6693 100.108 11.864V16.504C100.108 17.6987 100.449 18.6267 101.132 19.288C101.814 19.9493 102.742 20.28 103.916 20.28C105.004 20.28 105.868 20.0027 106.508 19.448C107.148 18.8933 107.5 18.1147 107.564 17.112H111.02C110.956 19.032 110.284 20.5467 109.004 21.656C107.724 22.7653 106.028 23.32 103.916 23.32ZM124.895 23C123.295 23 122.047 22.5627 121.151 21.688C120.255 20.8133 119.807 19.5973 119.807 18.04V8.536H114.943V5.4H119.807V0.439999H123.263V5.4H130.143V8.536H123.263V18.04C123.263 19.256 123.85 19.864 125.023 19.864H129.823V23H124.895ZM141.555 23.288C140.296 23.288 139.187 23.0853 138.227 22.68C137.288 22.2747 136.541 21.72 135.987 21.016C135.453 20.2907 135.144 19.4373 135.059 18.456H138.515C138.6 19.032 138.909 19.5013 139.443 19.864C139.976 20.2053 140.68 20.376 141.555 20.376H142.931C143.976 20.376 144.765 20.1627 145.299 19.736C145.832 19.3093 146.099 18.744 146.099 18.04C146.099 17.3573 145.853 16.824 145.363 16.44C144.893 16.0347 144.189 15.768 143.251 15.64L140.979 15.288C139.101 14.9893 137.715 14.456 136.819 13.688C135.944 12.8987 135.507 11.736 135.507 10.2C135.507 8.57867 136.029 7.33067 137.075 6.456C138.141 5.56 139.709 5.112 141.779 5.112H142.995C144.829 5.112 146.291 5.53867 147.379 6.392C148.488 7.224 149.117 8.344 149.267 9.752H145.811C145.725 9.24 145.437 8.824 144.947 8.504C144.477 8.184 143.827 8.024 142.995 8.024H141.779C140.776 8.024 140.04 8.216 139.571 8.6C139.123 8.96267 138.899 9.50667 138.899 10.232C138.899 10.872 139.101 11.352 139.507 11.672C139.912 11.992 140.541 12.216 141.395 12.344L143.731 12.728C145.715 13.0053 147.165 13.56 148.083 14.392C149.021 15.2027 149.491 16.3867 149.491 17.944C149.491 19.6293 148.936 20.9413 147.827 21.88C146.739 22.8187 145.107 23.288 142.931 23.288H141.555Z" fill="black" fill-opacity="0.2"/>
<defs>
<linearGradient id="paint0_linear_101_15" x1="75.5704" y1="-10" x2="75.5704" y2="32" gradientUnits="userSpaceOnUse">
<stop stop-color="#E8AEA9"/>
<stop offset="0.995" stop-color="#9963B3"/>
</linearGradient>
</defs>
</svg>
