<svg width="166" height="59" viewBox="0 0 166 59" fill="none" xmlns="http://www.w3.org/2000/svg">
<path d="M0.754688 16V1.4H2.91469V7.44H7.19469V1.4H9.35469V16H7.19469V9.44H2.91469V16H0.754688ZM12.6669 16V14.04H16.5269V6.96H13.1669V5H18.6269V14.04H22.1669V16H12.6669ZM17.3669 3.1C16.9002 3.1 16.5269 2.98 16.2469 2.74C15.9669 2.48667 15.8269 2.15333 15.8269 1.74C15.8269 1.31333 15.9669 0.979999 16.2469 0.74C16.5269 0.486666 16.9002 0.359999 17.3669 0.359999C17.8335 0.359999 18.2069 0.486666 18.4869 0.74C18.7669 0.979999 18.9069 1.31333 18.9069 1.74C18.9069 2.15333 18.7669 2.48667 18.4869 2.74C18.2069 2.98 17.8335 3.1 17.3669 3.1ZM26.1991 19.2L27.7991 12.98H30.6791L28.0791 19.2H26.1991ZM48.2034 16V5H50.0034V6.4H50.4034L50.1034 6.82C50.1034 6.20667 50.2701 5.72 50.6034 5.36C50.9368 4.98667 51.3834 4.8 51.9434 4.8C52.5434 4.8 53.0034 5.03333 53.3234 5.5C53.6568 5.96667 53.8234 6.60667 53.8234 7.42L53.3434 6.4H54.1034L53.7834 6.82C53.7834 6.20667 53.9501 5.72 54.2834 5.36C54.6301 4.98667 55.0901 4.8 55.6634 4.8C56.3434 4.8 56.8768 5.06 57.2634 5.58C57.6501 6.08667 57.8434 6.76667 57.8434 7.62V16H55.9234V7.68C55.9234 7.26667 55.8301 6.94667 55.6434 6.72C55.4701 6.49333 55.2168 6.38 54.8834 6.38C54.5501 6.38 54.2901 6.49333 54.1034 6.72C53.9301 6.93333 53.8434 7.24667 53.8434 7.66V16H52.2234V7.68C52.2234 7.25333 52.1301 6.93333 51.9434 6.72C51.7568 6.49333 51.4901 6.38 51.1434 6.38C50.8101 6.38 50.5568 6.49333 50.3834 6.72C50.2234 6.93333 50.1434 7.24667 50.1434 7.66V16H48.2034ZM62.4556 19.6L64.0356 15.36L59.9356 5H62.3156L64.6156 11.2C64.709 11.4667 64.8023 11.7867 64.8956 12.16C64.989 12.5333 65.069 12.84 65.1356 13.08C65.189 12.84 65.2623 12.5333 65.3556 12.16C65.449 11.7867 65.5423 11.4667 65.6356 11.2L67.7956 5H70.0956L64.7356 19.6H62.4556ZM84.68 16V5H86.82V7.1H87.34L86.82 7.6C86.82 6.72 87.08 6.03333 87.6 5.54C88.12 5.04667 88.84 4.8 89.76 4.8C90.8533 4.8 91.7267 5.15333 92.38 5.86C93.0333 6.55333 93.36 7.49333 93.36 8.68V16H91.2V8.92C91.2 8.2 91.0067 7.64667 90.62 7.26C90.2333 6.87333 89.7067 6.68 89.04 6.68C88.36 6.68 87.82 6.88667 87.42 7.3C87.0333 7.7 86.84 8.28667 86.84 9.06V16H84.68ZM99.8922 16.2C98.7455 16.2 97.8389 15.9067 97.1722 15.32C96.5189 14.72 96.1922 13.9067 96.1922 12.88C96.1922 11.84 96.5389 11.0267 97.2322 10.44C97.9389 9.84 98.9055 9.54 100.132 9.54H103.192V8.52C103.192 7.92 103.006 7.45333 102.632 7.12C102.259 6.78667 101.732 6.62 101.052 6.62C100.452 6.62 99.9522 6.75333 99.5522 7.02C99.1522 7.27333 98.9189 7.61333 98.8522 8.04H96.7322C96.8522 7.05333 97.3055 6.26667 98.0922 5.68C98.8922 5.09333 99.8989 4.8 101.112 4.8C102.419 4.8 103.452 5.13333 104.212 5.8C104.972 6.45333 105.352 7.34667 105.352 8.48V16H103.252V13.98H102.892L103.252 13.58C103.252 14.38 102.946 15.02 102.332 15.5C101.719 15.9667 100.906 16.2 99.8922 16.2ZM100.532 14.54C101.306 14.54 101.939 14.3467 102.432 13.96C102.939 13.56 103.192 13.0533 103.192 12.44V11H100.172C99.6122 11 99.1655 11.1533 98.8322 11.46C98.5122 11.7667 98.3522 12.1867 98.3522 12.72C98.3522 13.28 98.5455 13.7267 98.9322 14.06C99.3189 14.38 99.8522 14.54 100.532 14.54ZM108.164 16V5H109.964V6.4H110.364L110.064 6.82C110.064 6.20667 110.231 5.72 110.564 5.36C110.898 4.98667 111.344 4.8 111.904 4.8C112.504 4.8 112.964 5.03333 113.284 5.5C113.618 5.96667 113.784 6.60667 113.784 7.42L113.304 6.4H114.064L113.744 6.82C113.744 6.20667 113.911 5.72 114.244 5.36C114.591 4.98667 115.051 4.8 115.624 4.8C116.304 4.8 116.838 5.06 117.224 5.58C117.611 6.08667 117.804 6.76667 117.804 7.62V16H115.884V7.68C115.884 7.26667 115.791 6.94667 115.604 6.72C115.431 6.49333 115.178 6.38 114.844 6.38C114.511 6.38 114.251 6.49333 114.064 6.72C113.891 6.93333 113.804 7.24667 113.804 7.66V16H112.184V7.68C112.184 7.25333 112.091 6.93333 111.904 6.72C111.718 6.49333 111.451 6.38 111.104 6.38C110.771 6.38 110.518 6.49333 110.344 6.72C110.184 6.93333 110.104 7.24667 110.104 7.66V16H108.164ZM124.977 16.2C124.083 16.2 123.297 16.0267 122.617 15.68C121.95 15.32 121.437 14.82 121.077 14.18C120.717 13.54 120.537 12.7933 120.537 11.94V9.06C120.537 8.19333 120.717 7.44667 121.077 6.82C121.437 6.18 121.95 5.68667 122.617 5.34C123.297 4.98 124.083 4.8 124.977 4.8C125.883 4.8 126.67 4.98 127.337 5.34C128.003 5.68667 128.517 6.18 128.877 6.82C129.237 7.44667 129.417 8.19333 129.417 9.06V11.02H122.617V11.94C122.617 12.7533 122.817 13.3733 123.217 13.8C123.63 14.2267 124.223 14.44 124.997 14.44C125.623 14.44 126.13 14.3333 126.517 14.12C126.903 13.8933 127.143 13.5667 127.237 13.14H129.377C129.217 14.0733 128.737 14.82 127.937 15.38C127.137 15.9267 126.15 16.2 124.977 16.2ZM127.337 9.72V9.04C127.337 8.24 127.137 7.62 126.737 7.18C126.337 6.74 125.75 6.52 124.977 6.52C124.217 6.52 123.63 6.74 123.217 7.18C122.817 7.62 122.617 8.24667 122.617 9.06V9.56L127.497 9.54L127.337 9.72ZM144.581 16V14.04H148.441V6.96H145.081V5H150.541V14.04H154.081V16H144.581ZM149.281 3.1C148.814 3.1 148.441 2.98 148.161 2.74C147.881 2.48667 147.741 2.15333 147.741 1.74C147.741 1.31333 147.881 0.979999 148.161 0.74C148.441 0.486666 148.814 0.359999 149.281 0.359999C149.748 0.359999 150.121 0.486666 150.401 0.74C150.681 0.979999 150.821 1.31333 150.821 1.74C150.821 2.15333 150.681 2.48667 150.401 2.74C150.121 2.98 149.748 3.1 149.281 3.1ZM160.573 16.18C159.786 16.18 159.093 16.0533 158.493 15.8C157.906 15.5467 157.44 15.2 157.093 14.76C156.76 14.3067 156.566 13.7733 156.513 13.16H158.673C158.726 13.52 158.92 13.8133 159.253 14.04C159.586 14.2533 160.026 14.36 160.573 14.36H161.433C162.086 14.36 162.58 14.2267 162.913 13.96C163.246 13.6933 163.413 13.34 163.413 12.9C163.413 12.4733 163.26 12.14 162.953 11.9C162.66 11.6467 162.22 11.48 161.633 11.4L160.213 11.18C159.04 10.9933 158.173 10.66 157.613 10.18C157.066 9.68667 156.793 8.96 156.793 8C156.793 6.98667 157.12 6.20667 157.773 5.66C158.44 5.1 159.42 4.82 160.713 4.82H161.473C162.62 4.82 163.533 5.08667 164.213 5.62C164.906 6.14 165.3 6.84 165.393 7.72H163.233C163.18 7.4 163 7.14 162.693 6.94C162.4 6.74 161.993 6.64 161.473 6.64H160.713C160.086 6.64 159.626 6.76 159.333 7C159.053 7.22667 158.913 7.56667 158.913 8.02C158.913 8.42 159.04 8.72 159.293 8.92C159.546 9.12 159.94 9.26 160.473 9.34L161.933 9.58C163.173 9.75333 164.08 10.1 164.653 10.62C165.24 11.1267 165.533 11.8667 165.533 12.84C165.533 13.8933 165.186 14.7133 164.493 15.3C163.813 15.8867 162.793 16.18 161.433 16.18H160.573Z" fill="white"/>
<path d="M18.5318 58V40.4H21.9558V43.76H22.7878L21.9558 44.56C21.9558 43.152 22.3718 42.0533 23.2038 41.264C24.0358 40.4747 25.1878 40.08 26.6598 40.08C28.4091 40.08 29.8064 40.6453 30.8518 41.776C31.8971 42.8853 32.4198 44.3893 32.4198 46.288V58H28.9638V46.672C28.9638 45.52 28.6544 44.6347 28.0358 44.016C27.4171 43.3973 26.5744 43.088 25.5078 43.088C24.4198 43.088 23.5558 43.4187 22.9158 44.08C22.2971 44.72 21.9878 45.6587 21.9878 46.896V58H18.5318ZM37.6233 58V54.864H43.7993V43.536H38.4233V40.4H47.1593V54.864H52.8233V58H37.6233ZM45.1433 37.36C44.3966 37.36 43.7993 37.168 43.3513 36.784C42.9033 36.3787 42.6793 35.8453 42.6793 35.184C42.6793 34.5013 42.9033 33.968 43.3513 33.584C43.7993 33.1787 44.3966 32.976 45.1433 32.976C45.8899 32.976 46.4873 33.1787 46.9353 33.584C47.3833 33.968 47.6073 34.5013 47.6073 35.184C47.6073 35.8453 47.3833 36.3787 46.9353 36.784C46.4873 37.168 45.8899 37.36 45.1433 37.36ZM63.9468 58.32C62.4961 58.32 61.2161 58.0533 60.1068 57.52C59.0188 56.9653 58.1761 56.176 57.5788 55.152C57.0028 54.1067 56.7148 52.8907 56.7148 51.504V46.896C56.7148 45.488 57.0028 44.272 57.5788 43.248C58.1761 42.224 59.0188 41.4453 60.1068 40.912C61.2161 40.3573 62.4961 40.08 63.9468 40.08C66.0588 40.08 67.7548 40.6347 69.0348 41.744C70.3148 42.8533 70.9868 44.368 71.0508 46.288H67.5948C67.5308 45.2853 67.1788 44.5067 66.5388 43.952C65.8988 43.3973 65.0348 43.12 63.9468 43.12C62.7734 43.12 61.8454 43.4507 61.1628 44.112C60.4801 44.752 60.1388 45.6693 60.1388 46.864V51.504C60.1388 52.6987 60.4801 53.6267 61.1628 54.288C61.8454 54.9493 62.7734 55.28 63.9468 55.28C65.0348 55.28 65.8988 55.0027 66.5388 54.448C67.1788 53.8933 67.5308 53.1147 67.5948 52.112H71.0508C70.9868 54.032 70.3148 55.5467 69.0348 56.656C67.7548 57.7653 66.0588 58.32 63.9468 58.32ZM76.0943 58V34.64H79.5503V40.4L79.5183 43.76H80.3503L79.5183 44.56C79.5183 43.152 79.9343 42.0533 80.7663 41.264C81.5983 40.4747 82.7503 40.08 84.2223 40.08C85.9716 40.08 87.3689 40.6453 88.4143 41.776C89.4596 42.8853 89.9823 44.3893 89.9823 46.288V58H86.5263V46.672C86.5263 45.52 86.2169 44.624 85.5983 43.984C84.9796 43.344 84.1369 43.024 83.0703 43.024C81.9823 43.024 81.1183 43.3653 80.4783 44.048C79.8596 44.7093 79.5503 45.6587 79.5503 46.896V58H76.0943ZM95.1858 58V54.864H101.362V43.536H95.9858V40.4H104.722V54.864H110.386V58H95.1858ZM102.706 37.36C101.959 37.36 101.362 37.168 100.914 36.784C100.466 36.3787 100.242 35.8453 100.242 35.184C100.242 34.5013 100.466 33.968 100.914 33.584C101.362 33.1787 101.959 32.976 102.706 32.976C103.452 32.976 104.05 33.1787 104.498 33.584C104.946 33.968 105.17 34.5013 105.17 35.184C105.17 35.8453 104.946 36.3787 104.498 36.784C104.05 37.168 103.452 37.36 102.706 37.36ZM114.469 58V40.4H117.893V43.76H118.725L117.893 44.56C117.893 43.152 118.309 42.0533 119.141 41.264C119.973 40.4747 121.125 40.08 122.597 40.08C124.347 40.08 125.744 40.6453 126.789 41.776C127.835 42.8853 128.357 44.3893 128.357 46.288V58H124.901V46.672C124.901 45.52 124.592 44.6347 123.973 44.016C123.355 43.3973 122.512 43.088 121.445 43.088C120.357 43.088 119.493 43.4187 118.853 44.08C118.235 44.72 117.925 45.6587 117.925 46.896V58H114.469ZM139.321 58.32C137.55 58.32 136.131 57.7227 135.065 56.528C133.998 55.3333 133.465 53.7227 133.465 51.696V46.736C133.465 44.688 133.998 43.0667 135.065 41.872C136.131 40.6773 137.55 40.08 139.321 40.08C140.771 40.08 141.923 40.4853 142.777 41.296C143.63 42.0853 144.057 43.1733 144.057 44.56L143.321 43.76H144.121L144.025 39.664V34.64H147.481V58H144.057V54.64H143.321L144.057 53.84C144.057 55.2267 143.63 56.3253 142.777 57.136C141.923 57.9253 140.771 58.32 139.321 58.32ZM140.505 55.312C141.593 55.312 142.446 54.9813 143.065 54.32C143.705 53.6373 144.025 52.6987 144.025 51.504V46.896C144.025 45.7013 143.705 44.7733 143.065 44.112C142.446 43.4293 141.593 43.088 140.505 43.088C139.374 43.088 138.489 43.4187 137.849 44.08C137.209 44.72 136.889 45.6587 136.889 46.896V51.504C136.889 52.7413 137.209 53.6907 137.849 54.352C138.489 54.992 139.374 55.312 140.505 55.312Z" fill="url(#paint0_linear_101_15)"/>
<defs>
<linearGradient id="paint0_linear_101_15" x1="83.6222" y1="-4" x2="83.6222" y2="68" gradientUnits="userSpaceOnUse">
<stop stop-color="#DA22FF"/>
<stop offset="1" stop-color="#9733EE"/>
</linearGradient>
</defs>
</svg>
